<svg width="32" height="32" viewBox="0 0 32 32" fill="none" xmlns="http://www.w3.org/2000/svg">
<path d="M16.0001 2.66663C8.66675 2.66663 2.66675 8.66663 2.66675 16C2.66675 23.3333 8.66675 29.3333 16.0001 29.3333C23.3334 29.3333 29.3334 23.3333 29.3334 16C29.3334 8.66663 23.3334 2.66663 16.0001 2.66663ZM12.8001 22.9333C12.5068 22.9333 12.1068 22.8266 11.7334 22.6666L10.9734 24.5333L9.45342 24L9.66675 23.48C11.2668 19.4533 13.1068 14.8666 20.0001 13.3333C20.0001 13.3333 12.0001 13.3333 9.40008 20.7333C9.40008 20.7333 8.00008 19.3333 8.00008 17.7333C8.00008 16.1333 9.60008 12.7333 13.6001 11.9333C14.7334 11.7066 16.0001 11.5333 17.2534 11.3333C20.4001 10.9066 23.4268 10.48 24.0001 9.3333C24.0001 9.3333 21.6001 22.9333 12.8001 22.9333Z" fill="#83BF4F"/>
</svg>
