<svg xmlns="http://www.w3.org/2000/svg" width="46" height="42" viewBox="0 0 56 32" fill="none">
  <mask id="path-6-inside-1_4127_8731" fill="white">
    <path fill-rule="evenodd" clip-rule="evenodd" d="M34.9122 8.00098H24.8823V14.9045H28.2747V24.1378C28.2747 25.9707 29.7605 27.4565 31.5934 27.4565C33.4262 27.4565 34.9121 25.9707 34.9121 24.1378V14.9045H34.9122V8.00098Z"/>
  </mask>
  <path fill-rule="evenodd" clip-rule="evenodd" d="M34.9122 8.00098H24.8823V14.9045H28.2747V24.1378C28.2747 25.9707 29.7605 27.4565 31.5934 27.4565C33.4262 27.4565 34.9121 25.9707 34.9121 24.1378V14.9045H34.9122V8.00098Z" fill="#17233C"/>
  <path d="M24.8823 8.00098V6.30137H23.1827V8.00098H24.8823ZM34.9122 8.00098H36.6118V6.30137H34.9122V8.00098ZM24.8823 14.9045H23.1827V16.6041H24.8823V14.9045ZM28.2747 14.9045H29.9743V13.2049H28.2747V14.9045ZM34.9121 14.9045V13.2049H33.2125V14.9045H34.9121ZM34.9122 14.9045V16.6041H36.6118V14.9045H34.9122ZM24.8823 9.70059H34.9122V6.30137H24.8823V9.70059ZM26.5819 14.9045V8.00098H23.1827V14.9045H26.5819ZM28.2747 13.2049H24.8823V16.6041H28.2747V13.2049ZM29.9743 24.1378V14.9045H26.575V24.1378H29.9743ZM31.5934 25.7569C30.6992 25.7569 29.9743 25.032 29.9743 24.1378H26.575C26.575 26.9094 28.8218 29.1561 31.5934 29.1561V25.7569ZM33.2125 24.1378C33.2125 25.032 32.4876 25.7569 31.5934 25.7569V29.1561C34.3649 29.1561 36.6117 26.9094 36.6117 24.1378H33.2125ZM33.2125 14.9045V24.1378H36.6117V14.9045H33.2125ZM34.9122 13.2049H34.9121V16.6041H34.9122V13.2049ZM33.2126 8.00098V14.9045H36.6118V8.00098H33.2126Z" fill="white" mask="url(#path-6-inside-1_4127_8731)"/>
  <mask id="path-8-inside-2_4127_8731" fill="white">
    <path fill-rule="evenodd" clip-rule="evenodd" d="M41.697 0H34.9121V8.00183H38.3046V24.0648C38.3046 25.9384 39.8234 27.4573 41.697 27.4573C43.5706 27.4573 45.0895 25.9384 45.0895 24.0648L45.0895 8.00183V0H41.697Z"/>
  </mask>
  <path fill-rule="evenodd" clip-rule="evenodd" d="M41.697 0H34.9121V8.00183H38.3046V24.0648C38.3046 25.9384 39.8234 27.4573 41.697 27.4573C43.5706 27.4573 45.0895 25.9384 45.0895 24.0648L45.0895 8.00183V0H41.697Z" fill="#17233C"/>
  <path d="M34.9121 0V-1.69961H33.2125V0H34.9121ZM34.9121 8.00183H33.2125V9.70144H34.9121V8.00183ZM38.3046 8.00183H40.0042V6.30223H38.3046V8.00183ZM45.0895 24.0648H43.3898H45.0895ZM45.0895 8.00183H46.7891H45.0895ZM45.0895 0H46.7891V-1.69961H45.0895V0ZM34.9121 1.69961H41.697V-1.69961H34.9121V1.69961ZM36.6117 8.00183V0H33.2125V8.00183H36.6117ZM38.3046 6.30223H34.9121V9.70144H38.3046V6.30223ZM40.0042 24.0648V8.00183H36.6049V24.0648H40.0042ZM41.697 25.7577C40.7621 25.7577 40.0042 24.9998 40.0042 24.0648H36.6049C36.6049 26.8771 38.8847 29.1569 41.697 29.1569V25.7577ZM43.3898 24.0648C43.3898 24.9998 42.6319 25.7577 41.697 25.7577V29.1569C44.5093 29.1569 46.7891 26.8771 46.7891 24.0648H43.3898ZM43.3899 8.00183L43.3898 24.0648H46.7891L46.7891 8.00183H43.3899ZM43.3899 0V8.00183H46.7891V0H43.3899ZM41.697 1.69961H45.0895V-1.69961H41.697V1.69961Z" fill="white" mask="url(#path-8-inside-2_4127_8731)"/>
  <mask id="path-10-inside-3_4127_8731" fill="white">
    <path fill-rule="evenodd" clip-rule="evenodd" d="M18.2449 21.652H15V14.9053H21.5462C21.552 14.9053 21.5578 14.9053 21.5636 14.9053C21.5694 14.9053 21.5752 14.9053 21.581 14.9053H24.8824V21.652H24.8823V24.1385C24.8823 25.9713 23.3965 27.4572 21.5636 27.4572C19.7308 27.4572 18.2449 25.9713 18.2449 24.1385V21.652Z"/>
  </mask>
  <path fill-rule="evenodd" clip-rule="evenodd" d="M18.2449 21.652H15V14.9053H21.5462C21.552 14.9053 21.5578 14.9053 21.5636 14.9053C21.5694 14.9053 21.5752 14.9053 21.581 14.9053H24.8824V21.652H24.8823V24.1385C24.8823 25.9713 23.3965 27.4572 21.5636 27.4572C19.7308 27.4572 18.2449 25.9713 18.2449 24.1385V21.652Z" fill="#17233C"/>
  <path d="M18.2449 21.652H19.9445V19.9524H18.2449V21.652ZM15 21.652H13.3004V23.3516H15V21.652ZM15 14.9053V13.2057H13.3004V14.9053H15ZM21.5462 14.9053V16.6049L21.5549 16.6049L21.5462 14.9053ZM21.581 14.9053L21.5723 16.6049H21.581V14.9053ZM24.8824 14.9053H26.582V13.2057H24.8824V14.9053ZM24.8824 21.652V23.3516H26.582V21.652H24.8824ZM24.8823 21.652V19.9524H23.1827V21.652H24.8823ZM18.2449 19.9524H15V23.3516H18.2449V19.9524ZM16.6996 21.652V14.9053H13.3004V21.652H16.6996ZM15 16.6049H21.5462V13.2057H15V16.6049ZM21.5549 16.6049C21.5578 16.6049 21.5607 16.6049 21.5636 16.6049V13.2057C21.5549 13.2057 21.5462 13.2057 21.5375 13.2057L21.5549 16.6049ZM21.5636 16.6049C21.5665 16.6049 21.5694 16.6049 21.5723 16.6049L21.5898 13.2057C21.5811 13.2057 21.5723 13.2057 21.5636 13.2057V16.6049ZM21.581 16.6049H24.8824V13.2057H21.581V16.6049ZM23.1827 14.9053V21.652H26.582V14.9053H23.1827ZM24.8824 19.9524H24.8823V23.3516H24.8824V19.9524ZM23.1827 21.652V24.1385H26.5819V21.652H23.1827ZM23.1827 24.1385C23.1827 25.0327 22.4578 25.7576 21.5636 25.7576V29.1568C24.3352 29.1568 26.5819 26.91 26.5819 24.1385H23.1827ZM21.5636 25.7576C20.6694 25.7576 19.9445 25.0327 19.9445 24.1385H16.5453C16.5453 26.91 18.7921 29.1568 21.5636 29.1568V25.7576ZM19.9445 24.1385V21.652H16.5453V24.1385H19.9445Z" fill="white" mask="url(#path-10-inside-3_4127_8731)"/>
</svg>