<svg width="27" height="21" viewBox="0 0 27 21" fill="none" xmlns="http://www.w3.org/2000/svg">
<path d="M24.1169 5.34375V7.42344C24.1169 8.78125 23.0427 9.64062 21.3455 9.64062H17.6716V3.63359C17.6716 2.67969 18.6492 1.90625 19.8416 1.90625C21.0125 1.91484 22.0867 2.29297 22.8601 2.91172C23.6335 3.53906 24.1169 4.39844 24.1169 5.34375Z" stroke="#292D32" strokeWidth="1.5" strokeMiterlimit="10" strokeLinecap="round" strokeLinejoin="round"/>
<path d="M12.2683 7.94756L13.0847 7.29443" stroke="#292D32" strokeWidth="1.5" strokeLinecap="round" strokeLinejoin="round"/>
<path d="M7.21948 11.9867L9.60425 10.0789L10.1521 9.64062" stroke="#292D32" strokeWidth="1.5" strokeLinecap="round" strokeLinejoin="round"/>
<path d="M2.63257 9.64063V18.2344C2.63257 18.9477 3.64233 19.3516 4.35132 18.9219L6.18823 17.8219C6.61792 17.5641 7.21948 17.5984 7.6062 17.9078L9.38941 19.343C9.80835 19.6781 10.4958 19.6781 10.9148 19.343L12.7195 17.8992C13.0955 17.5984 13.697 17.5641 14.116 17.8219L15.9529 18.9219C16.6619 19.343 17.6716 18.9391 17.6716 18.2344V3.625C17.6716 2.67969 18.6384 1.90625 19.8201 1.90625H8.00366H6.92944C3.70679 1.90625 2.63257 3.44453 2.63257 5.34375V6.20313" stroke="#292D32" strokeWidth="1.5" strokeMiterlimit="10" strokeLinecap="round" strokeLinejoin="round"/>
<path d="M13.2939 11.7891H13.3036" stroke="#292D32" strokeWidth="2" strokeLinecap="round" strokeLinejoin="round"/>
<path d="M7.13863 7.49219H7.14828" stroke="#292D32" strokeWidth="2" strokeLinecap="round" strokeLinejoin="round"/>
</svg>
